<?xml version="1.0" encoding="utf-8"?>
<!-- Generator: Adobe Illustrator 25.2.0, SVG Export Plug-In . SVG Version: 6.00 Build 0)  -->
<svg version="1.1" id="Layer_1" xmlns="http://www.w3.org/2000/svg" xmlns:xlink="http://www.w3.org/1999/xlink" x="0px" y="0px"
	 viewBox="0 0 512 298" style="enable-background:new 0 0 512 298;" xml:space="preserve">
<style type="text/css">
	.st0{fill:#1F1F1F;}
</style>
<path class="st0" d="M301.19,123.28h-13.53l-5.51,10.46l-18.25-34.3h-16.33l-18.07,34.3l-5.57-10.46H210.4l-39.67,75.29h24.6H248h16
	h52.65h24.6L301.19,123.28z M253.39,109.06h4.73l18.61,34.98l-20.77,39.42l-20.99-39.44L253.39,109.06z M186.7,188.94l29.52-56.03
	h1.93l5.92,11.13l-23.65,44.9H186.7z M211.3,188.94l18.24-34.62l18.42,34.62H211.3z M263.96,188.94l18.24-34.62l18.42,34.62H263.96z
	 M311.53,188.94l-23.9-44.92l5.85-11.11h1.93l29.82,56.03H311.53z"/>
</svg>
